<svg xmlns="http://www.w3.org/2000/svg" width="21" height="20" viewBox="0 0 21 20">
  <defs>
    <style>
      .cls-1 {
        fill: gray;
        fill-rule: evenodd;
      }
    </style>
  </defs>
  <path id="icon" class="cls-1" d="M16,16a2,2,0,1,0,2,2A2,2,0,0,0,16,16ZM4.008,18A2,2,0,1,0,6,16,2,2,0,0,0,4.008,18Zm13.3-14H5.16L7.4,8.73,7.529,9H14.55ZM4.21,2H20l0.161,0.96L16.3,9.97A1.99,1.99,0,0,1,14.55,11H7.1L6.2,12.63l-0.03.12a0.256,0.256,0,0,0,.249.25H18v2H6a2,2,0,0,1-2-2,1.935,1.935,0,0,1,.249-0.96L5.6,9.59,2,2H0V0H3.27Z"/>
</svg>
