<svg xmlns="http://www.w3.org/2000/svg" width="20" height="20" viewBox="0 0 20 20">
  <defs>
    <style>
      .cls-1 {
        fill: #e6e4e4;
        fill-rule: evenodd;
      }
    </style>
  </defs>
  <path id="cart_icon" data-name="cart icon" class="cls-1" d="M6,16a2,2,0,1,0,2,2,2,2,0,0,0-2-2H6ZM0,0V2H2L5.6,9.59,4.249,12.04A1.933,1.933,0,0,0,4,13a2.006,2.006,0,0,0,2,2H18V13H6.42a0.247,0.247,0,0,1-.25-0.25L6.2,12.63,7.1,11h7.45A1.988,1.988,0,0,0,16.3,9.97l3.58-6.49A0.965,0.965,0,0,0,20,3a1,1,0,0,0-1-1H4.209L3.27,0H0ZM16,16a2,2,0,1,0,2,2,2,2,0,0,0-2-2h0Z"/>
</svg>
