<svg xmlns="http://www.w3.org/2000/svg" width="20" height="19" viewBox="0 0 20 19">
  <defs>
    <style>
      .cls-1 {
        fill: gray;
        fill-rule: evenodd;
      }
    </style>
  </defs>
  <path id="wishlist_icon" data-name="wishlist icon" class="cls-1" d="M10.1,15.55l-0.1.1-0.1-.1C5.14,11.24,2,8.39,2,5.5A3.417,3.417,0,0,1,5.5,2,3.908,3.908,0,0,1,9.069,4.36H10.94A3.883,3.883,0,0,1,14.5,2,3.417,3.417,0,0,1,18,5.5C18,8.39,14.86,11.24,10.1,15.55ZM14.5,0A5.986,5.986,0,0,0,10,2.09,5.986,5.986,0,0,0,5.5,0,5.447,5.447,0,0,0,0,5.5c0,3.78,3.4,6.86,8.55,11.54L10,18.35l1.45-1.319C16.6,12.36,20,9.28,20,5.5A5.447,5.447,0,0,0,14.5,0Z"/>
</svg>
