<svg xmlns="http://www.w3.org/2000/svg" width="22" height="12" viewBox="0 0 22 12">
  <defs>
    <style>
      .cls-1 {
        fill: #b5b5b5;
        fill-rule: evenodd;
      }
    </style>
  </defs>
  <path id="game_icon" data-name="game icon" class="cls-1" d="M18.5,6A1.5,1.5,0,1,1,20,4.5,1.5,1.5,0,0,1,18.5,6Zm-4,3A1.5,1.5,0,1,1,16,7.5,1.5,1.5,0,0,1,14.5,9ZM10,7H7v3H5V7H2V5H5V2H7V5h3V7ZM20,0H2A2.006,2.006,0,0,0,0,2v8a2.006,2.006,0,0,0,2,2H20a2.005,2.005,0,0,0,2-2V2A2.005,2.005,0,0,0,20,0Z"/>
</svg>
