<svg xmlns="http://www.w3.org/2000/svg" width="16" height="16" viewBox="0 0 16 16">
  <defs>
    <style>
      .cls-1 {
        fill: #666;
        fill-rule: evenodd;
      }
    </style>
  </defs>
  <path id="instagram_icon" data-name="instagram icon" class="cls-1" d="M11.015,2H4.93a3.017,3.017,0,0,0-2.155.774A3.02,3.02,0,0,0,2,4.931v6.083a3.047,3.047,0,0,0,.83,2.213A3.116,3.116,0,0,0,4.984,14h6.03a3.021,3.021,0,0,0,2.156-.774A2.831,2.831,0,0,0,14,11.069V4.986a3.115,3.115,0,0,0-.774-2.157A2.959,2.959,0,0,0,11.015,2ZM16,11.309a4.758,4.758,0,0,1-1.327,3.428A4.709,4.709,0,0,1,11.29,16H4.709a4.711,4.711,0,0,1-3.382-1.263A4.525,4.525,0,0,1,0,11.309V4.692A4.46,4.46,0,0,1,4.709,0h6.642a4.648,4.648,0,0,1,3.38,1.323A4.568,4.568,0,0,1,16,4.692v6.617ZM8,10A2,2,0,1,0,6,8,2,2,0,0,0,8,10ZM7.971,12a4,4,0,0,1,0-8A4,4,0,1,1,7.971,12ZM12,5a1,1,0,1,1,1-1A0.986,0.986,0,0,1,12,5Z"/>
</svg>
