<svg xmlns="http://www.w3.org/2000/svg" width="14" height="12" viewBox="0 0 14 12">
  <defs>
    <style>
      .cls-1 {
        fill: #666;
        fill-rule: evenodd;
      }
    </style>
  </defs>
  <path id="twitter_icon" data-name="twitter icon" class="cls-1" d="M14,1.533A5.568,5.568,0,0,1,12.353,2,2.961,2.961,0,0,0,13.616.358a5.652,5.652,0,0,1-1.824.721A2.826,2.826,0,0,0,9.69.143a2.862,2.862,0,0,0-2.039.877,2.982,2.982,0,0,0-.834,2.091,3.125,3.125,0,0,0,.076.677A8.065,8.065,0,0,1,.974.686a3.031,3.031,0,0,0,.888,3.962,2.79,2.79,0,0,1-1.3-.371V4.315a2.948,2.948,0,0,0,2.3,2.91,2.79,2.79,0,0,1-1.3.052A2.89,2.89,0,0,0,4.253,9.338,5.649,5.649,0,0,1,.686,10.609,0.9,0.9,0,0,1,0,10.568,7.933,7.933,0,0,0,4.4,11.9a8.093,8.093,0,0,0,5.817-2.48,8.42,8.42,0,0,0,2.356-5.964c0-.129,0-0.257-0.009-0.385A5.925,5.925,0,0,0,14,1.533Z"/>
</svg>
